<?xml version="1.0" encoding="UTF-8" standalone="no"?>
<svg
   xmlns:dc="http://purl.org/dc/elements/1.1/"
   xmlns:cc="http://creativecommons.org/ns#"
   xmlns:rdf="http://www.w3.org/1999/02/22-rdf-syntax-ns#"
   xmlns:svg="http://www.w3.org/2000/svg"
   xmlns="http://www.w3.org/2000/svg"
   id="svg8"
   version="1.1"
   viewBox="0 0 63.499999 63.500002"
   height="240"
   width="240">
  <defs
     id="defs2">
    <linearGradient
       gradientTransform="matrix(0.26458333,0,0,0.26458333,0.57139271,6.3458707)"
       gradientUnits="userSpaceOnUse"
       id="a"
       x1="160.08"
       x2="100.08"
       y1="40.079998"
       y2="180">
      <stop
         offset="0"
         stop-color="#37aee2"
         id="stop833" />
      <stop
         offset="1"
         stop-color="#1e96c8"
         id="stop835" />
    </linearGradient>
    <linearGradient
       gradientUnits="userSpaceOnUse"
       gradientTransform="scale(1.0919068,0.9158291)"
       id="b"
       x1="123.67709"
       x2="146.50331"
       y1="131.03925"
       y2="174.66003">
      <stop
         offset="0"
         stop-color="#eff7fc"
         id="stop838" />
      <stop
         offset="1"
         stop-color="#fff"
         id="stop840" />
    </linearGradient>
  </defs>
  <metadata
     id="metadata5">
    <rdf:RDF>
      <cc:Work
         rdf:about="">
        <dc:format>image/svg+xml</dc:format>
        <dc:type
           rdf:resource="http://purl.org/dc/dcmitype/StillImage" />
        <dc:title></dc:title>
      </cc:Work>
    </rdf:RDF>
  </metadata>
  <g
     id="layer1">
    <g
       transform="translate(-1.4749908,-1.5266685)"
       id="g884">
      <circle
         style="fill:#ffffff;stroke-width:0.264583"
         cx="33.224991"
         cy="33.276669"
         fill="url(#a)"
         id="circle845"
         r="31.75" />
      <path
         id="path849"
         style="fill:#000000;stroke-width:0.264583"
         d="m 47.381901,20.625238 c -0.246419,0.009 -0.507008,0.07177 -0.768945,0.190686 l -30.583147,11.79256 c -2.087562,0.837409 -2.074994,2.002446 -0.380339,2.521294 L 23.498087,37.57924 41.66752,26.116377 c 0.85778,-0.520174 1.645018,-0.240821 0.998906,0.332795 L 27.944843,39.734147 h -5.16e-4 v 5.19e-4 l -5.16e-4,5.16e-4 5.16e-4,5.16e-4 -0.540018,8.093048 c 0.79375,0 1.144323,-0.363008 1.5875,-0.79375 l 3.813204,-3.708302 7.934399,5.861659 c 1.460236,0.805656 2.513542,0.388395 2.877344,-1.355474 l 5.208466,-24.543205 c 0.433173,-1.736989 -0.37551,-2.703421 -1.443321,-2.664436 z" />
    </g>
  </g>
</svg>
