<?xml version="1.0" encoding="UTF-8" standalone="no"?>
<svg
   xmlns:dc="http://purl.org/dc/elements/1.1/"
   xmlns:cc="http://creativecommons.org/ns#"
   xmlns:rdf="http://www.w3.org/1999/02/22-rdf-syntax-ns#"
   xmlns:svg="http://www.w3.org/2000/svg"
   xmlns="http://www.w3.org/2000/svg"
   width="125.604mm"
   height="53.876999mm"
   viewBox="0 0 125.604 53.876999"
   version="1.1"
   id="svg8">
  <defs
     id="defs2">
    <rect
       x="74.750496"
       y="46.194126"
       width="38.944176"
       height="26.440418"
       id="rect1033" />
  </defs>
  <metadata
     id="metadata5">
    <rdf:RDF>
      <cc:Work
         rdf:about="">
        <dc:format>image/svg+xml</dc:format>
        <dc:type
           rdf:resource="http://purl.org/dc/dcmitype/StillImage" />
        <dc:title></dc:title>
      </cc:Work>
    </rdf:RDF>
  </metadata>
  <g
     id="layer1">
    <path
       id="path861"
       d="m 24.462291,188.49507 c -6.087334,-1.04539 -12.156349,-3.4366 -16.811926,-6.62394 -0.989998,-0.67777 -1.826888,-1.19489 -1.859756,-1.14913 -0.03287,0.0457 -0.390049,0.52714 -0.793733,1.06976 l -0.73397,0.98657 -1.631216,-1.09389 C 1.73452,181.0828 0.9557,180.5543 0.900977,180.51 c -0.05473,-0.0443 0.51249,-0.90608 1.260477,-1.91506 l 1.359979,-1.83451 2.149293,1.41403 c 5.335039,3.50996 12.379283,6.05588 18.261355,6.60001 0.94775,0.0877 2.34949,0.22324 3.11498,0.30125 l 1.3918,0.14185 v 1.83666 1.83666 l -0.99414,-0.0272 c -0.54678,-0.0149 -1.88887,-0.18083 -2.98243,-0.36864 z m 26.5513,-7.08283 -1.06013,-1.91143 1.90148,-1.2233 c 3.80803,-2.44984 7.43312,-5.7346 10.22065,-9.26108 l 1.0094,-1.27699 1.76452,1.29568 c 0.97048,0.71263 1.76451,1.36016 1.76451,1.43894 0,0.34713 -0.87343,1.43311 -1.05993,1.31786 -0.11363,-0.0702 -0.54039,0.31851 -0.94834,0.86386 -1.32605,1.77269 -5.23141,5.6495 -7.40297,7.34886 -1.97344,1.54432 -4.63618,3.31904 -4.97979,3.31904 -0.0821,0 -0.62633,-0.86015 -1.2094,-1.91144 z m -9.18691,-24.06887 c -9.60119,-9.60345 -10.52666,-10.6042 -9.80638,-10.6042 0.69336,0 2.11325,1.31821 11.0729,10.28007 8.09931,8.1013 10.20886,10.34878 9.95343,10.60421 -0.17827,0.17827 -0.3903,0.32413 -0.47118,0.32413 -0.0809,0 -4.91782,-4.7719 -10.74877,-10.60421 z m -44.532445,0.39078 c -2.272342,-4.7885 -3.334242,-9.54233 -3.337312,-14.94021 -0.0034,-5.95625 1.000138,-10.30654 3.584782,-15.54002 4.861776,-9.8443 13.160601,-16.31718 24.007895,-18.72555 3.65886,-0.81236 10.30554,-0.8722 13.782,-0.12407 4.9332,1.06162 9.01492,2.76062 12.95442,5.39223 3.78842,2.5307 8.31671,7.36079 10.37964,11.07145 l 0.58954,1.06042 -0.75136,-0.92786 c -5.62713,-6.94907 -13.37905,-11.41631 -22.37377,-12.89347 -3.06059,-0.50263 -8.94415,-0.36433 -11.93289,0.28048 -6.790378,1.46501 -12.285888,4.34787 -17.180675,9.01272 -5.211714,4.96691 -8.276066,10.25262 -10.069956,17.36972 -0.644293,2.55618 -0.705649,3.24912 -0.705649,7.96918 0,4.73766 0.05979,5.4069 0.715643,8.01062 0.393605,1.56259 0.899412,3.28091 1.124018,3.81846 0.763272,1.82677 0.18556,1.21396 -0.786326,-0.8341 z m 73.513945,-1.41755 c -0.68228,-0.23722 -1.30581,-0.49812 -1.38563,-0.57978 -0.0798,-0.0817 0.0871,-0.97639 0.37099,-1.98829 0.28386,-1.0119 0.68627,-2.83155 0.89423,-4.04366 0.20797,-1.21212 0.44326,-2.26899 0.52289,-2.34861 0.0796,-0.0796 1.11427,-0.059 2.29922,0.0459 l 2.15445,0.19071 -0.16511,1.09748 c -0.3897,2.59035 -0.37131,2.55556 -1.35077,2.55556 -0.49874,0 -0.90718,0.0895 -0.90764,0.19882 -0.003,0.63965 -0.86092,4.99862 -1.01135,5.13693 -0.0994,0.0914 -0.73901,-0.0279 -1.42128,-0.26509 z m -88.488093,-6.64457 c -1.424673,-9.3569 0.177153,-19.47386 4.430936,-27.98531 1.157102,-2.31527 4.225693,-7.2904 4.496613,-7.2904 0.365439,0 3.522863,2.53357 3.522863,2.8268 0,0.18623 -0.37172,0.61058 -0.826047,0.94301 -2.306262,1.68751 -6.501924,9.75563 -8.178827,15.72761 -1.240376,4.41737 -1.702931,7.93437 -1.712799,13.02313 l -0.0088,4.55195 -0.709315,0.10411 c -0.694377,0.10191 -0.715745,0.0619 -1.014596,-1.9009 z m 85.526873,-32.60117 c -1.72138,-2.19105 -4.83728,-5.28799 -7.26396,-7.21978 -6.77878,-5.39632 -14.7434,-8.7806 -23.30596,-9.903058 -3.94659,-0.517353 -5.1267,-0.517339 -5.1267,6.4e-5 0,0.243844 -0.24797,0.397654 -0.64108,0.397654 -1.38305,0 -1.47976,-0.16646 -1.47976,-2.54686 0,-2.577362 -0.36643,-2.382381 3.65564,-1.945236 7.83619,0.85169 15.13153,3.537966 21.79446,8.025116 4.6533,3.13376 10.92351,9.77371 13.62445,14.42786 0.44887,0.77347 -0.11075,0.22334 -1.25709,-1.23576 z"
       style="fill:none;stroke-width:0.265105" />
    <path
       id="path859"
       d="m 29.631841,196.53508 c -7.11465,-0.80382 -14.402011,-3.42323 -20.479382,-7.36124 -2.743351,-1.77763 -3.356134,-2.65181 -0.814803,-1.16237 5.607413,3.28641 15.054375,5.90207 21.360455,5.91425 l 1.1267,0.002 v -1.22389 c 0,-1.13985 0.041,-1.21292 0.59649,-1.06405 0.32807,0.0879 1.2228,0.16149 1.98829,0.16348 l 1.3918,0.004 v 2.5185 2.5185 l -1.52435,-0.0347 c -0.8384,-0.0191 -2.47874,-0.1425 -3.6452,-0.27429 z m 28.42525,-5.97863 c -0.0636,-0.11412 -0.54891,-0.99209 -1.07858,-1.95106 l -0.96302,-1.74358 2.31683,-1.56883 c 2.25453,-1.52665 8.24836,-7.19656 10.15866,-9.60967 l 0.90665,-1.14529 1.88426,1.41357 1.88426,1.41357 -0.82384,1.07053 c -1.78003,2.31302 -3.83947,4.5149 -5.9934,6.4079 -3.20283,2.81487 -8.04703,6.15239 -8.29182,5.71286 z m -27.85931,-6.20804 c -6.20154,-0.7964 -13.493918,-3.98785 -17.797782,-7.78907 l -0.795316,-0.70243 0.795316,0.51909 c 1.684757,1.09959 5.335211,2.77594 7.913042,3.6338 11.52863,3.83655 24.99686,1.01015 33.97359,-7.12957 l 1.59063,-1.44232 -1.57987,-1.61012 c -1.04662,-1.06667 -1.49095,-1.69905 -1.31642,-1.87357 0.17453,-0.17453 1.14103,0.61744 2.86348,2.34637 l 2.60004,2.60983 -1.57875,1.38967 c -0.86831,0.76432 -2.57926,2.0898 -3.80212,2.94552 -1.22285,0.85572 -2.44906,1.71449 -2.72491,1.90838 -0.42266,0.29708 -0.452,0.44508 -0.18657,0.94106 0.17324,0.32369 0.2496,0.69432 0.16969,0.82362 -0.25312,0.40955 -4.00914,1.85788 -6.56392,2.53105 -4.34861,1.14583 -9.15512,1.46438 -13.56013,0.89869 z m 46.91378,-20.79101 c -1.00641,-0.35158 -1.87713,-0.68651 -1.93491,-0.7443 -0.22914,-0.22914 0.26456,-1.49316 0.5832,-1.49316 0.34724,0 1.25205,-2.95917 1.79111,-5.8578 l 0.2869,-1.54274 1.21454,0.13562 c 3.02768,0.3381 2.91626,0.28271 2.76617,1.37496 -0.28771,2.09385 -0.95124,5.30402 -1.45029,7.01666 -0.60029,2.06001 -0.5695,2.04951 -3.25672,1.11076 z m -88.556662,-4.86525 c -0.05923,-0.0958 -0.189581,-0.89811 -0.289676,-1.78283 l -0.181992,-1.60859 0.793335,-0.15867 0.793334,-0.15867 -0.279919,-1.27223 c -0.153955,-0.69973 -0.283098,-3.83713 -0.286983,-6.972 -0.0061,-4.89877 0.07492,-6.07783 0.576321,-8.38999 1.163641,-5.36602 3.404568,-10.7073 6.350314,-15.13604 l 1.453376,-2.18506 1.095969,0.84439 c 0.602783,0.46442 1.132646,0.868 1.177476,0.89686 0.04483,0.0289 -0.366723,0.75145 -0.914561,1.60577 -2.002387,3.12263 -3.882309,8.1139 -4.579033,12.15751 -1.433739,8.3211 -1.453564,8.50081 -1.447702,13.12271 0.0033,2.58147 0.151651,5.38652 0.334507,6.32379 0.180743,0.92644 0.266741,1.74631 0.191109,1.82194 -0.245877,0.24588 -4.674971,1.07056 -4.785875,0.89111 z m 45.716282,-10.49491 -1.43997,-1.45808 h 16.6263 16.6263 l -8e-4,-0.8616 c -0.002,-1.72771 -0.59785,-5.69249 -1.21381,-8.06994 -0.80536,-3.10843 -2.22882,-6.40407 -4.34233,-10.05345 -0.91933,-1.58741 -1.91264,-3.30373 -2.20736,-3.81406 -0.48674,-0.84283 -0.39641,-0.79423 0.98556,0.53021 0.83677,0.80194 2.37909,2.5914 3.42737,3.97657 4.13964,5.47001 6.53907,11.83729 6.96814,18.4911 l 0.17523,2.71732 h -17.08235 -17.08236 z m 36.84963,-20.31486 c -0.51033,-0.88504 -0.96563,-1.71054 -1.01177,-1.83445 -0.0462,-0.12391 0.52297,-0.53282 1.26471,-0.90868 1.25202,-0.63445 1.32626,-0.72559 1.03664,-1.27265 -0.83125,-1.5701 -3.58411,-6.291 -4.28563,-7.34944 l -0.79068,-1.19297 1.52058,1.45808 c 1.97422,1.89306 4.52284,5.14536 6.34594,8.09806 l 1.45268,2.35276 -2.0372,1.12924 c -1.12045,0.62108 -2.15649,1.12923 -2.3023,1.12922 -0.1458,0 -0.68264,-0.72413 -1.19297,-1.60917 z m -14.18313,-14.31527 c -4.26032,-2.81415 -11.82582,-5.43582 -17.09929,-5.92542 -0.94775,-0.088 -2.2302,-0.22202 -2.84988,-0.29784 l -1.1267,-0.13786 v -1.27255 -1.27256 l 2.05457,0.33358 c 6.15654,0.99958 11.64673,3.17653 16.93946,6.71678 1.31819,0.88172 2.54924,1.78692 2.73567,2.01155 0.4297,0.51776 0.32959,0.49392 -0.65383,-0.15568 z"
       style="fill:none;stroke:none;stroke-width:0.265105" />
    <path
       id="path857"
       d="m 27.449771,184.9957 c 0.25793,-0.0672 0.61583,-0.0628 0.79531,0.01 0.17949,0.0726 -0.0316,0.12761 -0.46898,0.12221 -0.43742,-0.005 -0.58427,-0.0648 -0.32633,-0.13204 z m -3.44637,-0.26509 c 0.25794,-0.0672 0.61583,-0.0628 0.79531,0.01 0.17949,0.0726 -0.0316,0.12761 -0.46898,0.1222 -0.43742,-0.005 -0.58427,-0.0648 -0.32633,-0.13202 z m -1.97677,-0.2625 c 0.19137,-0.0766 0.42003,-0.0672 0.50812,0.0209 0.0881,0.0881 -0.0685,0.15075 -0.34795,0.13925 -0.30883,-0.0127 -0.37165,-0.0755 -0.16017,-0.16017 z m 35.30871,-10.55567 c 0.34245,-0.36451 0.68228,-0.66276 0.75518,-0.66276 0.0729,0 -0.14763,0.29825 -0.49008,0.66276 -0.34245,0.36453 -0.68228,0.66278 -0.75518,0.66278 -0.0729,0 0.14763,-0.29825 0.49008,-0.66278 z m 1.98829,-1.98829 c 0.56951,-0.58322 1.09512,-1.06041 1.16802,-1.06041 0.0729,0 -0.33341,0.47719 -0.90292,1.06041 -0.56951,0.58324 -1.09512,1.06043 -1.16803,1.06043 -0.0729,0 0.33342,-0.47719 0.90293,-1.06043 z m 6.99147,-1.78945 c -0.32976,-0.42048 -0.32038,-0.42985 0.10009,-0.1001 0.4416,0.34634 0.58203,0.56403 0.36384,0.56403 -0.055,0 -0.26382,-0.20876 -0.46393,-0.46393 z m -5.00318,-0.43147 c 0,-0.055 0.20877,-0.26382 0.46393,-0.46393 0.42047,-0.32977 0.42985,-0.32038 0.10009,0.10008 -0.34632,0.4416 -0.56402,0.58204 -0.56402,0.36385 z m -78.980438,-18.87702 c 0.01272,-0.30885 0.07554,-0.37166 0.160168,-0.16017 0.07658,0.19137 0.06716,0.42003 -0.02093,0.50812 -0.08809,0.0881 -0.150749,-0.0685 -0.139238,-0.34795 z m 92.786838,0 c 0.0127,-0.30885 0.0755,-0.37166 0.16016,-0.16017 0.0766,0.19137 0.0672,0.42003 -0.0209,0.50812 -0.0881,0.0881 -0.15075,-0.0685 -0.13924,-0.34795 z m -93.031014,-1.7011 c 0,-0.36453 0.06017,-0.51365 0.133715,-0.33139 0.07354,0.18226 0.07354,0.48051 0,0.66278 -0.07354,0.18224 -0.133715,0.0331 -0.133715,-0.33139 z m 88.545154,0 c 0,-0.36453 0.0602,-0.51365 0.13371,-0.33139 0.0735,0.18226 0.0735,0.48051 0,0.66278 -0.0735,0.18224 -0.13371,0.0331 -0.13371,-0.33139 z m 4.77189,0 c 0,-0.36453 0.0602,-0.51365 0.13372,-0.33139 0.0735,0.18226 0.0735,0.48051 0,0.66278 -0.0735,0.18224 -0.13372,0.0331 -0.13372,-0.33139 z m -81.143132,-0.15465 c 0.01273,-0.30883 0.07554,-0.37165 0.160166,-0.16017 0.07658,0.19137 0.06717,0.42003 -0.02092,0.50813 -0.08809,0.0881 -0.15075,-0.0685 -0.139239,-0.34795 z m -0.265105,-1.59062 c 0.01273,-0.30885 0.07554,-0.37166 0.160166,-0.16017 0.07658,0.19137 0.06717,0.42003 -0.02092,0.50811 -0.08809,0.0881 -0.150749,-0.0685 -0.139238,-0.34794 z m 76.863647,0.0884 c -0.003,-0.33771 0.1943,-0.45557 0.72498,-0.43319 0.55879,0.0236 0.60522,0.0617 0.19883,0.16322 -0.29161,0.0729 -0.61785,0.26779 -0.72498,0.43319 -0.12361,0.19084 -0.19625,0.1312 -0.19883,-0.16322 z m -89.017913,-0.72904 c 0,-0.51033 0.05456,-0.7191 0.121239,-0.46393 0.06668,0.25516 0.06668,0.6727 0,0.92786 -0.06668,0.25516 -0.121239,0.0464 -0.121239,-0.46393 z m 91.863743,0.61974 c 0.18226,-0.0735 0.4805,-0.0735 0.66276,0 0.18226,0.0735 0.0331,0.13371 -0.33138,0.13371 -0.36452,0 -0.51364,-0.0602 -0.33138,-0.13371 z M -6.207773,144.2207 c 0.0016,-0.87485 0.05098,-1.20078 0.109982,-0.72429 0.059,0.47648 0.05778,1.19227 -0.0027,1.59064 -0.06049,0.39835 -0.108765,0.009 -0.107278,-0.86635 z m -0.0027,-3.04871 c 0,-0.80195 0.0497,-1.13001 0.11044,-0.72904 0.06074,0.40097 0.06074,1.0571 0,1.45808 -0.06074,0.40097 -0.11044,0.0729 -0.11044,-0.72904 z m -11.947675,-2.65106 c 0,-0.51032 0.05456,-0.71909 0.121239,-0.46393 0.06668,0.25516 0.06668,0.6727 0,0.92787 -0.06668,0.25516 -0.121239,0.0464 -0.121239,-0.46394 z m 12.154266,-0.41975 c 0.01273,-0.30883 0.07554,-0.37165 0.160166,-0.16016 0.07658,0.19137 0.06717,0.42002 -0.02092,0.50812 -0.08809,0.0881 -0.150749,-0.0685 -0.139238,-0.34796 z m -11.908807,-1.96619 c 0,-0.36452 0.06017,-0.51363 0.133715,-0.33138 0.07354,0.18226 0.07354,0.4805 0,0.66276 -0.07354,0.18226 -0.133715,0.0331 -0.133715,-0.33138 z m 0.244176,-1.74528 c 0.01272,-0.30883 0.07554,-0.37165 0.160168,-0.16017 0.07658,0.19137 0.06716,0.42003 -0.02093,0.50813 -0.08809,0.0881 -0.150749,-0.0685 -0.139238,-0.34796 z m 0.265105,-1.32552 c 0.01272,-0.30884 0.07554,-0.37166 0.160168,-0.16016 0.07658,0.19137 0.06716,0.42001 -0.02093,0.50812 -0.08809,0.0881 -0.15075,-0.0685 -0.139239,-0.34796 z M 1.398131,120.65875 c 0,-0.055 0.20877,-0.26381 0.463934,-0.46393 0.420473,-0.32976 0.42985,-0.32038 0.100093,0.10009 -0.346325,0.4416 -0.564027,0.58204 -0.564027,0.36384 z m 53.92373,-0.49639 -0.50502,-0.59649 0.59648,0.50503 c 0.32807,0.27776 0.59649,0.54618 0.59649,0.59648 0,0.21215 -0.21335,0.0555 -0.68795,-0.50502 z M 3.253868,118.55505 c 0,-0.0456 0.387716,-0.43334 0.861592,-0.86159 l 0.861592,-0.77864 -0.778638,0.86159 c -0.7258,0.80313 -0.944546,0.98345 -0.944546,0.77864 z m 49.955663,-0.77864 -0.77864,-0.86159 0.86159,0.77864 c 0.80313,0.7258 0.98345,0.94455 0.77864,0.94455 -0.0456,0 -0.43334,-0.38772 -0.86159,-0.8616 z M 5.90492,116.15197 c 0,-0.0551 0.208771,-0.26382 0.463934,-0.46394 0.420473,-0.32976 0.42985,-0.32038 0.100093,0.10009 -0.346325,0.4416 -0.564027,0.58204 -0.564027,0.36385 z m 45.034071,-0.36385 c -0.32975,-0.42047 -0.32038,-0.42985 0.1001,-0.10009 0.4416,0.34633 0.58203,0.56403 0.36384,0.56403 -0.055,0 -0.26382,-0.20877 -0.46394,-0.46394 z m 13.40496,-2.5185 -0.77864,-0.86159 0.86159,0.77864 c 0.47388,0.42825 0.86159,0.81597 0.86159,0.86159 0,0.20481 -0.21874,0.0245 -0.94454,-0.77864 z m 0.91073,-0.39765 c -0.32976,-0.42048 -0.32038,-0.42985 0.10009,-0.1001 0.4416,0.34633 0.58203,0.56403 0.36384,0.56403 -0.055,0 -0.26382,-0.20877 -0.46393,-0.46393 z m -3.28622,-3.57892 -2.11462,-2.18712 2.18711,2.11462 c 2.03133,1.964 2.30798,2.25961 2.11463,2.25961 -0.0399,0 -1.02408,-0.9842 -2.18712,-2.18711 z m -40.47204,-0.91014 c 0.19137,-0.0766 0.42003,-0.0672 0.50812,0.0209 0.0881,0.0881 -0.0685,0.15075 -0.34795,0.13924 -0.30883,-0.0127 -0.37165,-0.0755 -0.16017,-0.16017 z m 14.05058,0 c 0.19137,-0.0766 0.42003,-0.0672 0.50812,0.0209 0.0881,0.0881 -0.0685,0.15075 -0.34795,0.13924 -0.30884,-0.0127 -0.37165,-0.0755 -0.16017,-0.16017 z m -12.72505,-0.2651 c 0.19137,-0.0766 0.42002,-0.0672 0.50812,0.0209 0.0881,0.0881 -0.0685,0.15074 -0.34795,0.13923 -0.30884,-0.0127 -0.37165,-0.0755 -0.16017,-0.16016 z m 11.39952,0 c 0.19137,-0.0766 0.42003,-0.0672 0.50812,0.0209 0.0881,0.0881 -0.0685,0.15074 -0.34795,0.13923 -0.30883,-0.0127 -0.37165,-0.0755 -0.16017,-0.16016 z m -9.42276,-0.26773 c 0.25794,-0.0672 0.61583,-0.0628 0.79532,0.01 0.17948,0.0726 -0.0316,0.12761 -0.46898,0.12221 -0.43742,-0.005 -0.58428,-0.0648 -0.32634,-0.13203 z m 7.15784,0 c 0.25794,-0.0672 0.61584,-0.0628 0.79532,0.01 0.17948,0.0726 -0.0316,0.12761 -0.46898,0.12221 -0.43742,-0.005 -0.58428,-0.0648 -0.32634,-0.13203 z m 26.40539,-1.87085 c -0.32976,-0.42047 -0.32038,-0.42985 0.10009,-0.10009 0.4416,0.34632 0.58204,0.56402 0.36384,0.56402 -0.055,0 -0.26381,-0.20877 -0.46393,-0.46393 z m -28.54359,-8.08571 0.054,-2.452223 0.0902,2.244952 c 0.0551,1.371933 0.21458,2.323981 0.40997,2.448161 0.2185,0.13887 0.17284,0.2045 -0.1442,0.20727 -0.41255,0.004 -0.45796,-0.26755 -0.40998,-2.44816 z m 8.3797,-1.440347 c 0.19137,-0.07658 0.42003,-0.06716 0.50812,0.02093 0.0881,0.08809 -0.0685,0.15075 -0.34795,0.139239 -0.30883,-0.01272 -0.37165,-0.07554 -0.16017,-0.160168 z m -1.32552,-0.265105 c 0.19137,-0.07658 0.42002,-0.06716 0.50811,0.02093 0.0881,0.08809 -0.0685,0.15075 -0.34795,0.139238 -0.30883,-0.01272 -0.37165,-0.07554 -0.16016,-0.160167 z m -1.87231,-0.259583 c 0.18226,-0.07354 0.4805,-0.07354 0.66276,0 0.18226,0.07354 0.0331,0.133716 -0.33138,0.133716 -0.36452,0 -0.51364,-0.06017 -0.33138,-0.133716 z m -2.5185,-0.272275 c 0.25516,-0.06668 0.6727,-0.06668 0.92787,0 0.25516,0.06668 0.0464,0.121239 -0.46394,0.121239 -0.51032,0 -0.71909,-0.05456 -0.46393,-0.121239 z"
       style="fill:none;stroke-width:0.265105" />
    <path
       id="path855"
       d="m 30.360881,196.66131 c 0.25516,-0.0667 0.6727,-0.0667 0.92787,0 0.25516,0.0667 0.0464,0.12124 -0.46394,0.12124 -0.51033,0 -0.7191,-0.0546 -0.46393,-0.12124 z m -2.2534,-0.25793 c 0.18226,-0.0735 0.48051,-0.0735 0.66277,0 0.18226,0.0735 0.0331,0.13371 -0.33139,0.13371 -0.36451,0 -0.51364,-0.0602 -0.33138,-0.13371 z m -1.57406,-0.27064 c 0.19137,-0.0766 0.42003,-0.0672 0.50812,0.0209 0.0881,0.0881 -0.0685,0.15074 -0.34795,0.13923 -0.30883,-0.0127 -0.37165,-0.0755 -0.16017,-0.16016 z m -1.32553,-0.26509 c 0.19138,-0.0766 0.42003,-0.0672 0.50812,0.0209 0.0881,0.0881 -0.0685,0.15075 -0.34795,0.13924 -0.30883,-0.0127 -0.37165,-0.0755 -0.16017,-0.16016 z m 2.76704,-2.1225 c 0.25516,-0.0667 0.67271,-0.0667 0.92787,0 0.25516,0.0667 0.0464,0.12124 -0.46394,0.12124 -0.51032,0 -0.71909,-0.0546 -0.46393,-0.12124 z m -2.76704,-0.26346 c 0.19138,-0.0766 0.42003,-0.0672 0.50812,0.0209 0.0881,0.0881 -0.0685,0.15074 -0.34795,0.13923 -0.30883,-0.0127 -0.37165,-0.0755 -0.16017,-0.16016 z m 7.14603,-1.86676 c 0.47648,-0.059 1.19227,-0.0578 1.59063,0.003 0.39836,0.0605 0.009,0.10876 -0.86634,0.10728 -0.87485,-0.002 -1.20078,-0.051 -0.72429,-0.10999 z m 33.72989,-6.56806 c 0.34245,-0.36453 0.68228,-0.66276 0.75519,-0.66276 0.0729,0 -0.14764,0.29823 -0.49009,0.66276 -0.34244,0.36451 -0.68228,0.66276 -0.75518,0.66276 -0.0729,0 0.14763,-0.29825 0.49008,-0.66276 z m -35.18768,-0.58137 c 0.25794,-0.0672 0.61583,-0.0628 0.79532,0.01 0.17948,0.0726 -0.0316,0.12761 -0.46898,0.12221 -0.43742,-0.005 -0.58428,-0.0648 -0.32634,-0.13205 z m 7.15785,0 c 0.25793,-0.0672 0.61583,-0.0628 0.79531,0.01 0.17948,0.0726 -0.0315,0.12761 -0.46898,0.12221 -0.43742,-0.005 -0.58427,-0.0648 -0.32633,-0.13205 z m -9.13461,-0.26249 c 0.19137,-0.0766 0.42002,-0.0672 0.50812,0.0209 0.0881,0.0881 -0.0685,0.15074 -0.34795,0.13923 -0.30884,-0.0127 -0.37165,-0.0755 -0.16017,-0.16017 z m 11.39952,0 c 0.19138,-0.0766 0.42003,-0.0672 0.50812,0.0209 0.0881,0.0881 -0.0685,0.15074 -0.34795,0.13923 -0.30883,-0.0127 -0.37165,-0.0755 -0.16017,-0.16017 z m -12.21141,-2.64554 c 0.18226,-0.0735 0.48051,-0.0735 0.66277,0 0.18226,0.0736 0.0331,0.13372 -0.33139,0.13372 -0.36451,0 -0.51364,-0.0602 -0.33138,-0.13372 z m 5.30211,0 c 0.18226,-0.0735 0.4805,-0.0735 0.66276,0 0.18226,0.0736 0.0331,0.13372 -0.33138,0.13372 -0.36452,0 -0.51364,-0.0602 -0.33138,-0.13372 z m 36.9159,-0.75229 c 0.34245,-0.36451 0.68229,-0.66276 0.75519,-0.66276 0.0729,0 -0.14763,0.29825 -0.49008,0.66276 -0.34245,0.36453 -0.68228,0.66276 -0.75519,0.66276 -0.0729,0 0.14763,-0.29823 0.49008,-0.66276 z m -3.71147,-3.1488 c 0,-0.0551 0.20877,-0.26382 0.46393,-0.46393 0.42048,-0.32975 0.42985,-0.32038 0.1001,0.1001 -0.34633,0.44158 -0.56403,0.58202 -0.56403,0.36383 z M 12.834326,177.1379 c -0.219218,-0.26414 -0.205088,-0.35348 0.05591,-0.35348 0.192095,0 0.349266,0.15906 0.349266,0.35348 0,0.19441 -0.02516,0.35346 -0.05591,0.35346 -0.03075,0 -0.187919,-0.15906 -0.349266,-0.35346 z m -1.632338,-1.37579 c -0.280158,-0.33756 -0.263758,-0.37635 0.100093,-0.23674 0.239335,0.0918 0.435155,0.27353 0.435155,0.40373 0,0.34091 -0.153462,0.29303 -0.535248,-0.16699 z m 43.084643,-3.04264 c 0.26391,-0.29161 0.53948,-0.53021 0.61238,-0.53021 0.0729,0 -0.0834,0.23859 -0.34728,0.53021 -0.26391,0.29162 -0.53948,0.53021 -0.61239,0.53021 -0.0729,0 0.0834,-0.23859 0.34729,-0.53021 z m -0.26264,-2.91366 c -1.30093,-1.31464 -1.50966,-1.64564 -1.21206,-1.92201 0.29095,-0.2702 0.32073,-0.26567 0.15614,0.0238 -0.13648,0.24007 0.3057,0.87214 1.34461,1.92201 0.85139,0.86036 1.48833,1.5643 1.41543,1.5643 -0.0729,0 -0.83976,-0.71467 -1.70412,-1.58814 z m 25.63601,-5.67552 c 0.18801,-0.20401 0.38361,-0.33124 0.43466,-0.28274 0.15724,0.14938 -0.24128,0.65366 -0.51658,0.65366 -0.14295,0 -0.10609,-0.16692 0.0819,-0.37092 z m 1.55574,-5.35094 c 0.0127,-0.30883 0.0755,-0.37164 0.16016,-0.16016 0.0766,0.19137 0.0672,0.42003 -0.0209,0.50811 -0.0881,0.0881 -0.15075,-0.0685 -0.13924,-0.34795 z m -88.300978,-0.74486 c 0,-0.0573 0.185142,-0.17523 0.411428,-0.26207 0.235922,-0.0905 0.342335,-0.0461 0.249458,0.1042 -0.155685,0.25191 -0.660886,0.37259 -0.660886,0.15787 z m -4.750965,-0.58065 c 0.01272,-0.30885 0.07554,-0.37165 0.160168,-0.16017 0.07658,0.19137 0.06716,0.42003 -0.02093,0.50811 -0.08809,0.0881 -0.15075,-0.0685 -0.139238,-0.34794 z m 93.317043,0 c 0.0127,-0.30885 0.0755,-0.37165 0.16017,-0.16017 0.0766,0.19137 0.0672,0.42003 -0.0209,0.50811 -0.0881,0.0881 -0.15075,-0.0685 -0.13924,-0.34794 z m -88.280043,-1.06043 c 0.01273,-0.30883 0.07554,-0.37164 0.160166,-0.16017 0.07658,0.19138 0.06717,0.42003 -0.02092,0.50813 -0.0881,0.0881 -0.15075,-0.0685 -0.139239,-0.34796 z m -5.281176,-0.64067 c 0,-0.36453 0.06017,-0.51364 0.133716,-0.33139 0.07354,0.18227 0.07354,0.48052 0,0.66278 -0.07354,0.18226 -0.133716,0.0331 -0.133716,-0.33139 z m 93.847259,-0.26511 c 0,-0.36451 0.0602,-0.51364 0.13371,-0.33137 0.0735,0.18226 0.0735,0.4805 0,0.66276 -0.0735,0.18226 -0.13371,0.0331 -0.13371,-0.33139 z m -88.81026,-0.79532 c 0,-0.36451 0.06017,-0.51364 0.133716,-0.33137 0.07354,0.18226 0.07354,0.48051 0,0.66276 -0.07354,0.18227 -0.133716,0.0331 -0.133716,-0.33139 z m 88.45359,-0.44619 c 0.19137,-0.0766 0.42002,-0.0672 0.50812,0.0209 0.0881,0.0881 -0.0685,0.15075 -0.34795,0.13924 -0.30884,-0.0127 -0.37166,-0.0755 -0.16017,-0.16017 z m -2.53003,-0.26772 c 0.25794,-0.0672 0.61583,-0.0628 0.79532,0.01 0.17948,0.0726 -0.0316,0.12761 -0.46898,0.12221 -0.43742,-0.005 -0.58428,-0.0648 -0.32634,-0.13203 z m -86.131355,-4.45563 c 5.3e-4,-1.60389 0.04426,-2.22584 0.09703,-1.38213 0.05277,0.84373 0.05228,2.156 -0.0011,2.91617 -0.05337,0.76016 -0.09654,0.0699 -0.09595,-1.53404 z m -3.789712,1.56854 c 0.01272,-0.30883 0.07554,-0.37165 0.160168,-0.16017 0.07658,0.19137 0.06716,0.42003 -0.02093,0.50812 -0.08809,0.0881 -0.15075,-0.0685 -0.139238,-0.34795 z m 63.788007,-1.36967 17.01787,-0.0702 0.10138,-1.12477 0.10139,-1.12475 0.0463,1.25926 0.0463,1.25925 -17.16557,-0.0643 -17.16556,-0.0643 z m -64.001837,-2.98247 c 0,-0.65614 0.0517,-0.92456 0.114889,-0.5965 0.06319,0.32808 0.06319,0.86491 0,1.19297 -0.06319,0.32808 -0.114889,0.0597 -0.114889,-0.59647 z m 80.836577,-1.45808 c 0.005,-0.43744 0.0648,-0.58429 0.13203,-0.32635 0.0672,0.25795 0.0628,0.61584 -0.01,0.79532 -0.0726,0.17949 -0.12762,-0.0316 -0.12221,-0.46897 z m -3.71147,-0.53022 c 0.005,-0.43743 0.0648,-0.58427 0.13203,-0.32633 0.0672,0.25793 0.0628,0.61582 -0.01,0.79532 -0.0726,0.17947 -0.12761,-0.0316 -0.12221,-0.46899 z m -72.91377,-0.13255 c 0,-0.36452 0.06017,-0.51364 0.133716,-0.33138 0.07354,0.18226 0.07354,0.4805 0,0.66277 -0.07354,0.18226 -0.133716,0.0331 -0.133716,-0.33139 z m 76.32938,-1.21506 c 0.0127,-0.30883 0.0755,-0.37165 0.16017,-0.16017 0.0766,0.19137 0.0672,0.42003 -0.0209,0.50812 -0.0881,0.0881 -0.15075,-0.0685 -0.13924,-0.34795 z m -76.085203,-0.79532 c 0.01273,-0.30883 0.07554,-0.37166 0.160166,-0.16016 0.07658,0.19137 0.06717,0.42001 -0.02092,0.50811 -0.0881,0.0881 -0.15075,-0.0685 -0.139239,-0.34795 z m -4.220755,-0.37556 c 0,-0.36452 0.06017,-0.51364 0.133716,-0.33138 0.07354,0.18226 0.07354,0.4805 0,0.66276 -0.07354,0.18226 -0.133716,0.0331 -0.133716,-0.33138 z m 80.040858,-0.15465 c 0.0127,-0.30883 0.0755,-0.37165 0.16016,-0.16017 0.0766,0.19138 0.0672,0.42003 -0.0209,0.50812 -0.0881,0.0881 -0.15075,-0.0685 -0.13924,-0.34795 z m -6.41728,-13.82965 c -0.32975,-0.42048 -0.32037,-0.42985 0.1001,-0.1001 0.4416,0.34633 0.58203,0.56403 0.36384,0.56403 -0.055,0 -0.26382,-0.20877 -0.46394,-0.46393 z m -1.06042,-1.32553 c -0.32975,-0.42047 -0.32038,-0.42985 0.1001,-0.10009 0.25516,0.20011 0.46393,0.40888 0.46393,0.46393 0,0.21819 -0.2177,0.0778 -0.56403,-0.36384 z m 9.8089,-7.42295 c -0.32976,-0.42047 -0.32038,-0.42985 0.10009,-0.1001 0.25516,0.20012 0.46394,0.40889 0.46394,0.46394 0,0.21819 -0.21771,0.0778 -0.56403,-0.36384 z m -2.20886,-2.44124 c -0.56361,-0.5772 -1.14309,-0.97631 -1.28773,-0.88691 -0.14465,0.0894 -0.1824,0.0321 -0.0839,-0.12724 0.0985,-0.15938 0.0275,-0.38658 -0.15787,-0.5049 -0.18533,-0.11831 -0.50896,-0.45371 -0.71919,-0.74533 -0.21023,-0.29162 0.47573,0.30167 1.52435,1.31842 1.04863,1.01674 1.90659,1.88165 1.90659,1.92201 0,0.18878 -0.23125,-0.002 -1.18225,-0.97605 z m -11.3932,-3.11454 c -0.14387,-0.37783 -0.11342,-0.40828 0.1484,-0.1484 0.18118,0.17983 0.26264,0.39374 0.18101,0.47536 -0.0816,0.0816 -0.22986,-0.0655 -0.32941,-0.32696 z m -16.37073,-6.09112 c 0.19138,-0.0766 0.42003,-0.0672 0.50812,0.0209 0.0881,0.0881 -0.0685,0.15075 -0.34795,0.13924 -0.30883,-0.0127 -0.37165,-0.0755 -0.16017,-0.16017 z m -2.26491,-0.26772 c 0.25794,-0.0672 0.61583,-0.0628 0.79531,0.01 0.17949,0.0726 -0.0315,0.12761 -0.46898,0.12221 -0.43742,-0.005 -0.58427,-0.0648 -0.32633,-0.13204 z m -3.46865,-1.60575 0.049,-1.52435 0.0968,1.3751 c 0.0822,1.1673 0.18492,1.3922 0.68001,1.48825 0.48387,0.0939 0.45903,0.1193 -0.14583,0.14925 -0.72026,0.0357 -0.72845,0.0177 -0.68,-1.48825 z m 0.69657,-1.30779 c 0.19137,-0.0766 0.42002,-0.0672 0.50811,0.0209 0.0881,0.0881 -0.0685,0.15075 -0.34795,0.13924 -0.30883,-0.0127 -0.37165,-0.0755 -0.16016,-0.16017 z"
       style="fill:none;stroke-width:0.265105" />
    <path
       id="path853"
       d="m 25.738111,188.70979 c 0.19137,-0.0766 0.42002,-0.0672 0.50811,0.0209 0.0881,0.0881 -0.0685,0.15074 -0.34795,0.13923 -0.30883,-0.0127 -0.37165,-0.0755 -0.16016,-0.16017 z m 34.24828,-11.08587 c 0.34245,-0.36451 0.68228,-0.66276 0.75519,-0.66276 0.0729,0 -0.14764,0.29825 -0.49009,0.66276 -0.34245,0.36453 -0.68228,0.66276 -0.75518,0.66276 -0.0729,0 0.14763,-0.29823 0.49008,-0.66276 z m 1.06042,-1.01083 c 0,-0.0456 0.38772,-0.43334 0.86159,-0.86159 l 0.86159,-0.77863 -0.77863,0.8616 c -0.7258,0.80311 -0.94455,0.98343 -0.94455,0.77862 z m -19.35268,-19.13716 c -5.90387,-5.90523 -10.67466,-10.73676 -10.60176,-10.73676 0.0729,0 4.96299,4.83153 10.86686,10.73676 5.90387,5.90521 10.67466,10.73676 10.60176,10.73676 -0.0729,0 -4.96299,-4.83155 -10.86686,-10.73676 z m -45.577175,-7.44505 c 0.01273,-0.30883 0.07554,-0.37165 0.160166,-0.16016 0.07658,0.19137 0.06717,0.42003 -0.02092,0.50811 -0.08809,0.0881 -0.150749,-0.0685 -0.139238,-0.34795 z m -12.12314,-3.29171 c 0,-1.23938 0.04567,-1.74639 0.10148,-1.12671 0.05581,0.61968 0.05581,1.63371 0,2.25339 -0.05581,0.61969 -0.10148,0.11267 -0.10148,-1.12668 z m 12.12314,-3.33592 c 0.01273,-0.30883 0.07554,-0.37164 0.160166,-0.16017 0.07658,0.19138 0.06717,0.42003 -0.02092,0.50813 -0.08809,0.0881 -0.150749,-0.0685 -0.139238,-0.34796 z m -11.929737,-1.85574 c 0.01272,-0.30883 0.07554,-0.37165 0.160168,-0.16017 0.07658,0.19139 0.06716,0.42003 -0.02093,0.50812 -0.08809,0.0881 -0.15075,-0.0685 -0.139238,-0.34795 z m 72.849192,-18.07133 c -0.32975,-0.42048 -0.32038,-0.42985 0.1001,-0.1001 0.4416,0.34633 0.58203,0.56403 0.36384,0.56403 -0.055,0 -0.26382,-0.20877 -0.46394,-0.46393 z m -2.91615,-2.91616 c -0.32976,-0.42047 -0.32038,-0.42985 0.10009,-0.1001 0.4416,0.34633 0.58203,0.56403 0.36384,0.56403 -0.055,0 -0.26382,-0.20877 -0.46393,-0.46393 z m -25.99621,-8.73074 c 0.19137,-0.0766 0.42003,-0.0672 0.50812,0.0209 0.0881,0.0881 -0.0685,0.15075 -0.34795,0.13924 -0.30883,-0.0127 -0.37165,-0.0755 -0.16017,-0.16017 z m 5.28554,0.005 c 0.18226,-0.0735 0.4805,-0.0735 0.66276,0 0.18226,0.0735 0.0331,0.13372 -0.33138,0.13372 -0.36452,0 -0.51364,-0.0602 -0.33138,-0.13372 z m 28.13361,-1.08367 c -0.32975,-0.42047 -0.32038,-0.42985 0.1001,-0.10009 0.25516,0.20011 0.46393,0.40888 0.46393,0.46393 0,0.21819 -0.2177,0.0778 -0.56403,-0.36384 z M 36.872531,99.899541 c 0.19137,-0.07658 0.42002,-0.06716 0.50811,0.02093 0.0881,0.08809 -0.0685,0.150749 -0.34795,0.139239 -0.30883,-0.0127 -0.37165,-0.07554 -0.16016,-0.160168 z m -2.93273,-0.259582 c 0.18226,-0.07354 0.4805,-0.07354 0.66276,0 0.18226,0.07354 0.0331,0.133715 -0.33138,0.133715 -0.36452,0 -0.51364,-0.06017 -0.33138,-0.133715 z"
       style="fill:none;stroke-width:0.265105" />
    <path
       id="path851"
       d="M -34.391077,145.81129 V 78.076903 H 33.343311 101.0777 v 67.734387 67.73439 H 33.343311 -34.391077 Z m 69.135788,48.44798 -0.0759,-2.58477 -1.92201,-0.0779 -1.92202,-0.0779 v -1.16611 -1.16611 l -1.1267,-0.0815 -1.12669,-0.0815 -0.0767,-2.0154 -0.0767,-2.0154 -2.68654,-0.17606 c -6.865831,-0.44995 -14.227668,-2.94849 -20.164387,-6.84364 -1.133585,-0.74374 -2.096723,-1.30548 -2.140306,-1.24831 -2.069953,2.71571 -2.583873,3.50031 -2.476319,3.78059 0.07186,0.18728 0.845457,0.80332 1.719096,1.36899 l 1.588434,1.02849 -0.620188,0.81311 -0.62019,0.81311 1.846193,1.27056 c 1.015404,0.69881 1.786274,1.36751 1.713044,1.48601 -0.197933,0.32026 4.383038,3.25698 7.41576,4.75401 5.914993,2.9198 12.871203,4.71682 18.498753,4.77886 l 2.32927,0.0257 -0.0759,-2.58478 z m -5.17915,-0.51412 c 0.25517,-0.0667 0.67271,-0.0667 0.92787,0 0.25516,0.0667 0.0464,0.12124 -0.46393,0.12124 -0.51033,0 -0.7191,-0.0546 -0.46394,-0.12124 z m 31.1755,-4.49379 c 4.06535,-2.64983 8.6489,-6.82981 11.43173,-10.42522 l 1.12139,-1.44883 -0.7553,-0.6135 c -0.41542,-0.33743 -2.0974,-1.51934 -3.73774,-2.62647 -1.64034,-1.10713 -2.98244,-2.11062 -2.98244,-2.22998 0,-0.11935 0.11866,-0.29034 0.26368,-0.37997 0.14503,-0.0896 0.3823,-0.3846 0.52728,-0.65549 0.22532,-0.42103 -0.0105,-0.69575 -1.62466,-1.89235 l -1.88825,-1.39982 -0.82022,1.04552 c -0.45112,0.57504 -1.50431,1.7613 -2.34043,2.63615 l -1.52021,1.59063 -2.52856,-2.51326 c -1.39072,-1.3823 -2.52857,-2.63425 -2.52857,-2.78212 0,-0.14787 -3.90631,-4.17651 -8.68069,-8.95254 l -8.68069,-8.68368 h 17.06286 17.06286 l -0.17698,-2.31967 c -0.38107,-4.99454 -1.41307,-8.94109 -3.44884,-13.18899 -1.98431,-4.14051 -4.81085,-7.96045 -7.84653,-10.60421 -0.66968,-0.58323 -1.61893,-1.63667 -2.10944,-2.34097 -1.20474,-1.72987 -4.83634,-5.34166 -6.84247,-6.80516 -3.9153,-2.85628 -7.93005,-4.74998 -12.77661,-6.02653 -3.42458,-0.90201 -10.29005,-1.13944 -14.05058,-0.48592 -9.034933,1.57015 -16.32625,6.08413 -22.482654,13.91877 l -0.507732,0.64614 -1.33165,-0.97752 c -0.732409,-0.53764 -1.410259,-0.97752 -1.506336,-0.97752 -0.09608,0 -0.82435,-0.4905 -1.61838,-1.09 l -1.443694,-1.09 0.556119,-0.781 c 0.305868,-0.42955 0.513283,-0.81453 0.460925,-0.85551 -0.05236,-0.041 -0.915026,-0.68781 -1.917039,-1.4374 l -1.821842,-1.36289 -0.462467,0.59107 c -3.429472,4.38315 -6.834149,12.08763 -8.227569,18.61823 -0.727401,3.40914 -1.008169,11.3713 -0.533862,15.13951 0.420943,3.34426 0.415561,3.33271 1.462329,3.13634 l 0.860622,-0.16146 0.178624,1.81212 c 0.09824,0.99667 0.278706,1.97399 0.401028,2.17184 0.209599,0.33901 0.922061,0.30291 2.450161,-0.12415 0.358626,-0.10022 0.495558,0.21674 0.752992,1.74298 0.173059,1.02601 0.410411,1.86548 0.527449,1.86548 0.254363,0 4.254336,-0.78764 4.667009,-0.91899 0.204879,-0.0652 0.189754,-0.69382 -0.05223,-2.17117 -0.438108,-2.67471 -0.460936,-9.04975 -0.04345,-12.13544 l 0.325239,-2.4039 0.17988,2.80158 c 0.415974,6.47873 1.946601,11.41573 5.336854,17.21386 3.677466,6.28935 6.549333,9.90723 9.902588,12.47497 0.846067,0.64788 2.079957,1.69546 2.741976,2.32797 2.390772,2.28419 7.662543,5.37376 11.27767,6.60938 4.20249,1.43637 7.29849,1.93958 11.89809,1.93386 5.11967,-0.006 9.78315,-0.97424 14.10755,-2.92793 l 1.61595,-0.73007 1.92676,3.27862 c 1.05971,1.80324 2.01643,3.27862 2.12604,3.27862 0.10961,0 0.53773,-0.26622 0.95139,-0.5916 0.41366,-0.32538 0.66041,-0.44324 0.54834,-0.2619 -0.24087,0.38972 1.6951,4.03477 2.14296,4.03477 0.0692,0 1.15804,-0.67288 2.41977,-1.49528 z m 1.36617,-7.08818 c 0,-0.0551 0.20877,-0.26382 0.46394,-0.46394 0.42047,-0.32975 0.42984,-0.32038 0.10009,0.10008 -0.34633,0.4416 -0.56403,0.58205 -0.56403,0.36386 z m -32.14401,-0.62424 c 0.61968,-0.0558 1.63371,-0.0558 2.25339,0 0.61969,0.0558 0.11267,0.10149 -1.12669,0.10149 -1.23937,0 -1.74638,-0.0457 -1.1267,-0.10149 z m 24.98617,-9.44977 c 0,-0.055 0.20877,-0.26382 0.46393,-0.46393 0.42048,-0.32975 0.42985,-0.32038 0.1001,0.1001 -0.34633,0.44158 -0.56403,0.58202 -0.56403,0.36383 z m -66.214807,-23.49428 c 0,-0.51032 0.05456,-0.71908 0.121239,-0.46393 0.06668,0.25516 0.06668,0.6727 0,0.92787 -0.06668,0.25516 -0.121239,0.0464 -0.121239,-0.46394 z m 77.135807,-2.5185 c 0.005,-0.43742 0.0648,-0.58427 0.13203,-0.32633 0.0672,0.25794 0.0628,0.61583 -0.01,0.79531 -0.0726,0.17949 -0.12761,-0.0316 -0.12221,-0.46898 z m -77.135807,-1.19297 c 0,-0.51033 0.05456,-0.7191 0.121239,-0.46393 0.06668,0.25516 0.06668,0.6727 0,0.92786 -0.06668,0.25517 -0.121239,0.0464 -0.121239,-0.46393 z m 91.601157,18.27211 c 0.5881,-1.99609 1.34568,-5.60152 1.53519,-7.3062 l 0.18082,-1.62658 -2.1636,-0.19153 -2.1636,-0.19151 0.1746,-1.16433 0.1746,-1.16433 h -1.37825 -1.37824 l 0.18368,-1.96017 0.18368,-1.96017 -1.02265,-0.14961 c -0.56246,-0.0823 -1.6297,-0.2228 -2.37163,-0.31221 l -1.34898,-0.1626 -0.31906,2.28077 c -0.17548,1.25442 -0.59538,3.23478 -0.93311,4.40081 -0.33773,1.16602 -0.54149,2.16039 -0.45281,2.2097 0.0887,0.0493 0.78756,0.2941 1.55305,0.54395 0.76549,0.24984 1.3918,0.60465 1.3918,0.78847 0,0.18382 -0.16345,0.87732 -0.36323,1.54112 l -0.36322,1.2069 2.04788,0.61825 2.04788,0.61825 -0.35415,0.8476 -0.35415,0.8476 2.31469,0.79366 c 1.27308,0.43651 2.43137,0.7647 2.57398,0.72932 0.1426,-0.0354 0.41477,-0.59211 0.60483,-1.23716 z m -5.87565,-34.59755 c 1.22536,-0.66793 2.22793,-1.25803 2.22793,-1.31132 0,-0.27025 -1.99494,-3.4414 -3.41432,-5.42739 -3.39991,-4.75714 -13.07269,-14.73767 -17.0192,-17.5607 -6.73727,-4.819315 -15.98704,-8.169656 -23.77278,-8.610683 l -2.71733,-0.153925 v 2.425891 2.425887 h 1.19297 1.19298 v 1.98829 1.98829 l 0.72904,0.003 c 0.40097,0.002 1.1764,0.0769 1.72318,0.16724 l 0.99415,0.16432 v 1.38427 1.38426 l 2.58477,0.18094 c 6.4892,0.45427 13.82598,2.89239 19.3752,6.43865 0.77787,0.49711 1.32771,0.74971 1.22188,0.56134 -0.10584,-0.18837 0.49447,0.31365 1.33402,1.11559 2.27539,2.17348 5.13079,5.6712 6.87203,8.41789 1.33126,2.09998 1.61231,2.40203 2.02807,2.17952 0.79631,-0.42617 0.91342,-0.3328 1.99566,1.5913 0.57219,1.01727 1.08162,1.85236 1.13208,1.85573 0.0505,0.003 1.09432,-0.54037 2.31967,-1.2083 z"
       style="fill:none;stroke:none;stroke-width:0.265105" />
    <path
       id="path849"
       d="m 27.714871,188.97228 c 0.25794,-0.0672 0.61583,-0.0628 0.79532,0.01 0.17948,0.0726 -0.0316,0.12761 -0.46898,0.12221 -0.43743,-0.005 -0.58428,-0.0648 -0.32634,-0.13203 z m 34.92257,-13.96695 c 0,-0.055 0.20877,-0.26382 0.46394,-0.46393 0.42047,-0.32977 0.42985,-0.32038 0.10009,0.10008 -0.34633,0.4416 -0.56403,0.58204 -0.56403,0.36385 z m -78.429292,-24.02449 c 0,-0.36451 0.06017,-0.51364 0.133715,-0.33137 0.07354,0.18225 0.07354,0.4805 0,0.66275 -0.07354,0.18226 -0.133715,0.0331 -0.133715,-0.33138 z m 90.574432,0.34911 c 0.19137,-0.0766 0.42002,-0.0672 0.50811,0.0209 0.0881,0.0881 -0.0685,0.15075 -0.34795,0.13924 -0.30883,-0.0127 -0.37165,-0.0755 -0.16016,-0.16017 z m -78.634873,-2.3374 c 0.0054,-0.43742 0.06482,-0.58428 0.132033,-0.32634 0.06722,0.25794 0.0628,0.61585 -0.0098,0.79532 -0.07262,0.17948 -0.127614,-0.0316 -0.122211,-0.46898 z m 0,-4.50678 c 0.0054,-0.43743 0.06482,-0.58428 0.132033,-0.32634 0.06722,0.25794 0.0628,0.61583 -0.0098,0.79531 -0.07262,0.17949 -0.127614,-0.0315 -0.122211,-0.46897 z m -11.960489,-2.14294 c 0.01272,-0.30884 0.07554,-0.37165 0.160168,-0.16017 0.07658,0.19137 0.06716,0.42002 -0.02093,0.50812 -0.08809,0.0881 -0.15075,-0.0685 -0.139238,-0.34795 z M 4.579394,123.84002 c 0,-0.055 0.20877,-0.26382 0.463934,-0.46394 0.420473,-0.32975 0.42985,-0.32038 0.100093,0.1001 -0.346325,0.4416 -0.564027,0.58203 -0.564027,0.36384 z m 51.020287,-1.82192 -1.04795,-1.1267 1.1267,1.04795 c 1.04782,0.97458 1.24852,1.20545 1.04795,1.20545 -0.0433,0 -0.55033,-0.50702 -1.1267,-1.1267 z M 7.495552,120.92386 c 0,-0.0551 0.20877,-0.26382 0.463934,-0.46393 0.420473,-0.32976 0.429849,-0.32038 0.100093,0.10009 -0.346326,0.4416 -0.564027,0.58203 -0.564027,0.36384 z m 58.695619,-5.53339 -0.50502,-0.59649 0.59649,0.50502 c 0.56055,0.4746 0.71717,0.68795 0.50502,0.68795 -0.0503,0 -0.31872,-0.26842 -0.59649,-0.59648 z m -36.3525,-3.57528 c 0.69698,-0.0548 1.77066,-0.0541 2.38594,0.002 0.61529,0.0556 0.045,0.10043 -1.26725,0.0996 -1.31227,-7.9e-4 -1.81568,-0.0463 -1.11869,-0.10108 z m 32.49985,-0.26875 c -0.32976,-0.42047 -0.32038,-0.42985 0.10009,-0.10009 0.25517,0.20011 0.46394,0.40888 0.46394,0.46393 0,0.21819 -0.21771,0.0778 -0.56403,-0.36384 z m -30.07889,-11.4658 c 0.0169,-0.241769 0.31399,-0.410319 0.75785,-0.429953 0.63857,-0.02825 0.64863,-0.01793 0.0804,0.08231 -0.35733,0.06303 -0.69836,0.256509 -0.75785,0.429953 -0.0595,0.17344 -0.0957,0.1364 -0.0804,-0.0823 z"
       style="fill:none;stroke-width:0.265105" />
    <path
       id="path835-4"
       style="fill:#ffffff;fill-opacity:1;stroke-width:0.231738"
       d="m 27.58274,0 -0.05853,2.693662 c 3.818463,0.08282 7.623989,1.090748 10.976239,2.917419 l 0.0017,0.0012 0.0011,0.0015 c 3.841344,2.081467 7.110724,5.234936 9.330427,8.99848 0.159746,0.2708 0.313566,0.541382 0.458743,0.811675 l 2.372957,-1.275447 C 50.49962,13.839764 50.328561,13.538659 50.154372,13.243398 47.682609,9.052511 44.067768,5.56423 39.78967,3.245518 l -0.0023,-0.0012 C 36.050524,1.208645 31.83451,0.092215 27.582969,0 Z m -0.707038,6.961608 a 19.976788,19.976788 0 0 0 -18.461616,12.331787 19.976788,19.976788 0 0 0 7.357687,24.255076 19.976788,19.976788 0 0 0 25.2243,-2.484386 L 26.870091,26.938394 H 46.846878 A 19.976788,19.976788 0 0 0 30.767369,7.345277 19.976788,19.976788 0 0 0 26.875702,6.961608 Z M 5.452625,10.683904 C 3.909284,12.719346 2.65957,14.974816 1.751906,17.362932 -0.038085,22.054013 -0.461492,27.228136 0.505128,32.146595 L 3.149131,31.62725 C 2.280277,27.206269 2.663905,22.526976 4.269101,18.321514 h 0.0011 v -0.0015 C 5.086003,16.173568 6.211499,14.14227 7.599075,12.312258 Z m 45.60781,18.801543 c -0.17575,1.691612 -0.532135,3.36599 -1.06026,4.982076 l 2.561828,0.836503 c 0.587749,-1.798557 0.983023,-3.658684 1.178496,-5.540139 z m -4.542251,11.76545 c -2.00873,2.74534 -4.605203,5.066777 -7.558982,6.752332 l 1.335153,2.339552 c 3.287444,-1.875959 6.163844,-4.447122 8.39815,-7.500754 z m -34.043654,5.145237 -1.609754,2.158952 c 1.114656,0.831063 2.292626,1.575332 3.521594,2.223975 3.792118,2.007197 8.060355,3.07241 12.347455,3.097726 l 0.01476,-2.693957 C 22.8986,51.16012 19.047676,50.197392 15.646726,48.397245 l -0.0011,-0.0011 C 14.539109,47.812193 13.477082,47.14365 12.474593,46.396218 Z" />
    <g
       aria-label="KENSOI  DOC"
       transform="matrix(1.8057632,0,0,1.8057632,-75.481118,-72.304004)"
       id="text1031"
       style="font-size:10.5833px;line-height:0.9;font-family:tt;-inkscape-font-specification:tt;white-space:pre;shape-inside:url(#rect1033);fill:#ffffff">
      <path
         d="m 76.429479,51.131543 3.012726,-4.578517 h 1.782831 l -4.61469,6.418193 z M 75.57682,46.553026 h 1.41593 v 7.513729 h -1.41593 z m 2.103224,3.710356 1.21956,-0.769976 2.640658,4.573349 h -1.679479 z"
         style="font-style:normal;font-variant:normal;font-weight:bold;font-stretch:normal;font-family:Bahnschrift;-inkscape-font-specification:Bahnschrift;fill:#ffffff"
         id="path856" />
      <path
         d="m 82.48077,46.553026 h 1.415929 v 7.513729 H 82.48077 Z m 0.511595,6.149476 h 4.521673 v 1.364253 h -4.521673 z m 0,-3.0489 h 3.953234 v 1.364254 h -3.953234 z m 0,-3.100576 h 4.521673 v 1.364254 h -4.521673 z"
         style="font-style:normal;font-variant:normal;font-weight:bold;font-stretch:normal;font-family:Bahnschrift;-inkscape-font-specification:Bahnschrift;fill:#ffffff"
         id="path858" />
      <path
         d="m 88.805944,46.553026 h 1.731155 l 2.795686,5.756736 -0.124023,0.134359 v -5.891095 h 1.353919 v 7.508562 H 92.82119 l -2.78535,-5.668887 0.124023,-0.134358 v 5.803245 h -1.353919 z"
         style="font-style:normal;font-variant:normal;font-weight:bold;font-stretch:normal;font-family:Bahnschrift;-inkscape-font-specification:Bahnschrift;fill:#ffffff"
         id="path860" />
      <path
         d="m 98.588263,54.14427 q -0.537433,0 -1.054196,-0.10852 -0.511595,-0.108521 -0.966346,-0.315226 -0.449583,-0.211872 -0.80615,-0.506427 v 0 l 0.656289,-1.167884 v 0 q 0.434081,0.356567 1.00252,0.552936 0.568439,0.191203 1.167883,0.191203 0.692462,0 1.074867,-0.232544 0.3824,-0.23771 0.3824,-0.666623 v -0.0052 q 0,-0.299722 -0.170528,-0.475422 -0.170531,-0.175699 -0.444416,-0.258381 -0.273884,-0.08268 -0.702797,-0.149861 -0.0155,-0.0052 -0.03101,-0.0052 -0.01033,0 -0.02584,-0.0052 l -0.113688,-0.0155 Q 97.802784,50.857659 97.306692,50.68196 96.8106,50.501093 96.464369,50.056677 96.118138,49.607093 96.118138,48.785441 v -0.0052 q 0,-0.728635 0.32556,-1.245398 0.325561,-0.516763 0.945676,-0.785479 0.620115,-0.273884 1.498612,-0.273884 0.403074,0 0.821652,0.09302 0.423742,0.09302 0.826822,0.268717 0.40307,0.175699 0.76481,0.423745 v 0 l -0.59945,1.198889 v 0 q -0.43408,-0.299722 -0.9095,-0.465086 -0.470254,-0.165364 -0.904334,-0.165364 -0.651121,0 -1.007688,0.21704 -0.356566,0.211873 -0.356566,0.599445 v 0.0052 q 0,0.32556 0.186035,0.516762 0.186034,0.186035 0.459918,0.273884 0.273885,0.08785 0.769977,0.186035 0.02067,0.0052 0.04134,0.01033 0.02067,0 0.04134,0.0052 0.03101,0.0052 0.05684,0.0155 0.03101,0.0052 0.06201,0.01034 0.713133,0.139526 1.188551,0.341063 0.48059,0.19637 0.80099,0.640786 0.32039,0.439248 0.32039,1.204057 v 0.01034 q 0,0.718301 -0.3359,1.229896 -0.33589,0.511595 -0.98185,0.780311 -0.640782,0.268717 -1.545117,0.268717 z"
         style="font-style:normal;font-variant:normal;font-weight:bold;font-stretch:normal;font-family:Bahnschrift;-inkscape-font-specification:Bahnschrift;fill:#ffffff"
         id="path862" />
      <path
         d="m 105.12014,54.14427 q -0.81648,0 -1.44176,-0.341064 -0.62012,-0.346231 -0.96118,-0.971513 -0.34107,-0.630451 -0.34107,-1.457271 V 49.24536 q 0,-0.826821 0.34107,-1.452104 0.34106,-0.63045 0.96118,-0.971513 0.62528,-0.346231 1.44176,-0.346231 0.81649,0 1.4366,0.346231 0.62529,0.341063 0.96635,0.971513 0.34106,0.625283 0.34106,1.452104 v 2.129062 q 0,0.82682 -0.34106,1.457271 -0.34106,0.625282 -0.96635,0.971513 -0.62011,0.341064 -1.4366,0.341064 z m 0,-1.41593 q 0.38241,0 0.67179,-0.160196 0.28939,-0.165364 0.44442,-0.465087 0.1602,-0.299722 0.1602,-0.692462 v -2.201409 q 0,-0.392739 -0.1602,-0.692462 -0.15503,-0.299722 -0.44442,-0.459919 -0.28938,-0.165364 -0.67179,-0.165364 -0.3824,0 -0.67179,0.165364 -0.28939,0.160197 -0.44958,0.459919 -0.15503,0.299723 -0.15503,0.692462 v 2.201409 q 0,0.39274 0.15503,0.692462 0.16019,0.299723 0.44958,0.465087 0.28939,0.160196 0.67179,0.160196 z"
         style="font-style:normal;font-variant:normal;font-weight:bold;font-stretch:normal;font-family:Bahnschrift;-inkscape-font-specification:Bahnschrift;fill:#ffffff"
         id="path864" />
      <path
         d="m 110.634,54.066755 h -1.4676 v -7.513729 h 1.4676 z"
         style="font-style:normal;font-variant:normal;font-weight:bold;font-stretch:normal;font-family:Bahnschrift;-inkscape-font-specification:Bahnschrift;fill:#ffffff"
         id="path866" />
      <path
         d="m 76.289953,62.29748 h 1.803502 q 0.697629,0 1.080034,-0.335895 0.382404,-0.335896 0.382404,-0.950844 v -2.211744 q 0,-0.614948 -0.382404,-0.950843 -0.382405,-0.335896 -1.080034,-0.335896 h -1.803502 v -1.364254 h 1.772496 q 0.940508,0 1.601964,0.315226 0.666624,0.315225 1.012855,0.919837 0.346231,0.604613 0.346231,1.457271 V 60.9694 q 0,0.811318 -0.335896,1.41593 -0.330728,0.604612 -0.997352,0.940508 -0.666624,0.335896 -1.63297,0.335896 H 76.289953 Z M 75.57682,56.148004 h 1.41593 v 7.51373 h -1.41593 z"
         style="font-style:normal;font-variant:normal;font-weight:bold;font-stretch:normal;font-family:Bahnschrift;-inkscape-font-specification:Bahnschrift;fill:#ffffff"
         id="path868" />
      <path
         d="m 84.904387,63.739248 q -0.816485,0 -1.441768,-0.341063 Q 82.842504,63.051954 82.50144,62.426671 82.160377,61.79622 82.160377,60.9694 v -2.129062 q 0,-0.82682 0.341063,-1.452103 0.341064,-0.630451 0.961179,-0.971514 0.625283,-0.346231 1.441768,-0.346231 0.816485,0 1.4366,0.346231 0.625283,0.341063 0.966346,0.971514 0.341064,0.625283 0.341064,1.452103 V 60.9694 q 0,0.82682 -0.341064,1.457271 -0.341063,0.625283 -0.966346,0.971514 -0.620115,0.341063 -1.4366,0.341063 z m 0,-1.41593 q 0.382404,0 0.671791,-0.160196 0.289387,-0.165364 0.444416,-0.465086 0.160197,-0.299723 0.160197,-0.692462 v -2.201409 q 0,-0.39274 -0.160197,-0.692462 -0.155029,-0.299723 -0.444416,-0.459919 -0.289387,-0.165364 -0.671791,-0.165364 -0.382405,0 -0.671792,0.165364 -0.289387,0.160196 -0.449583,0.459919 -0.155029,0.299722 -0.155029,0.692462 v 2.201409 q 0,0.392739 0.155029,0.692462 0.160196,0.299722 0.449583,0.465086 0.289387,0.160196 0.671792,0.160196 z"
         style="font-style:normal;font-variant:normal;font-weight:bold;font-stretch:normal;font-family:Bahnschrift;-inkscape-font-specification:Bahnschrift;fill:#ffffff"
         id="path870" />
      <path
         d="m 91.513782,63.739248 q -0.857826,0 -1.467606,-0.32556 -0.60978,-0.330728 -0.930173,-0.956011 -0.320393,-0.630451 -0.320393,-1.519283 v -2.061883 q 0,-0.888831 0.320393,-1.514114 0.320393,-0.630451 0.930173,-0.961179 0.60978,-0.330728 1.467606,-0.330728 0.707964,0 1.266068,0.30489 0.558104,0.30489 0.919838,0.888832 0.366901,0.578774 0.506427,1.400427 v 0 h -1.467606 v 0 Q 92.655827,58.29257 92.480128,58.029021 92.309596,57.765472 92.06155,57.625946 91.818672,57.48642 91.513782,57.48642 q -0.397908,0 -0.67696,0.165364 -0.279051,0.160196 -0.428913,0.475421 -0.144693,0.310058 -0.144693,0.749306 v 2.061883 q 0,0.439249 0.144693,0.749306 0.149862,0.310058 0.428913,0.475422 0.279052,0.160196 0.67696,0.160196 0.310057,0 0.558103,-0.134358 0.248046,-0.139526 0.418578,-0.403075 0.170532,-0.263549 0.248046,-0.640786 v 0 h 1.467606 v 0 q -0.144693,0.821653 -0.511595,1.405595 -0.361734,0.578774 -0.919838,0.883664 -0.552936,0.30489 -1.2609,0.30489 z"
         style="font-style:normal;font-variant:normal;font-weight:bold;font-stretch:normal;font-family:Bahnschrift;-inkscape-font-specification:Bahnschrift;fill:#ffffff"
         id="path872" />
    </g>
  </g>
</svg>
