<?xml version="1.0" encoding="UTF-8" standalone="no"?>
<svg
   xmlns:dc="http://purl.org/dc/elements/1.1/"
   xmlns:cc="http://creativecommons.org/ns#"
   xmlns:rdf="http://www.w3.org/1999/02/22-rdf-syntax-ns#"
   xmlns:svg="http://www.w3.org/2000/svg"
   xmlns="http://www.w3.org/2000/svg"
   xmlns:sodipodi="http://sodipodi.sourceforge.net/DTD/sodipodi-0.dtd"
   xmlns:inkscape="http://www.inkscape.org/namespaces/inkscape"
   sodipodi:docname="lib_design.icon.transparent2.svg"
   inkscape:version="1.0 (4035a4fb49, 2020-05-01)"
   id="svg8"
   version="1.1"
   viewBox="0 0 135.46667 135.46667"
   height="512"
   width="512"
   inkscape:export-filename="C:\Users\proko\Desktop\icons\gray\dark\1.png"
   inkscape:export-xdpi="96.000008"
   inkscape:export-ydpi="96.000008">
  <defs
     id="defs2" />
  <sodipodi:namedview
     inkscape:window-maximized="1"
     inkscape:window-y="-8"
     inkscape:window-x="-8"
     inkscape:window-height="961"
     inkscape:window-width="1280"
     inkscape:snap-page="false"
     units="px"
     showgrid="false"
     inkscape:document-rotation="0"
     inkscape:current-layer="layer1"
     inkscape:document-units="mm"
     inkscape:cy="264.61538"
     inkscape:cx="273.39407"
     inkscape:zoom="1.6801935"
     inkscape:pageshadow="2"
     inkscape:pageopacity="0.0"
     borderopacity="1.0"
     bordercolor="#666666"
     pagecolor="#ffffff"
     id="base"
     showguides="false" />
  <metadata
     id="metadata5">
    <rdf:RDF>
      <cc:Work
         rdf:about="">
        <dc:format>image/svg+xml</dc:format>
        <dc:type
           rdf:resource="http://purl.org/dc/dcmitype/StillImage" />
        <dc:title />
      </cc:Work>
    </rdf:RDF>
  </metadata>
  <g
     id="layer1"
     inkscape:groupmode="layer"
     inkscape:label="Layer 1">
    <path
       d="m 66.673965,21.553207 -0.10232,4.709273 c 6.675736,0.144794 13.328859,1.906932 19.189528,5.100463 l 0.0026,0.0021 0.0021,0.0026 c 6.715734,3.638986 12.431525,9.15213 16.312187,15.731855 0.27928,0.473434 0.5482,0.946486 0.80201,1.419034 l 4.14859,-2.229837 c -0.2899,-0.539718 -0.58896,-1.066133 -0.89349,-1.582332 -4.32133,-7.32684 -10.64108,-13.425329 -18.12039,-17.479084 l -0.0041,-0.0021 C 81.477616,23.666256 74.106843,21.714424 66.673965,21.553207 Z M 65.437866,33.72404 A 34.925,34.925 0 0 0 33.1618,55.283446 34.925,34.925 0 0 0 46.025096,97.688092 34.925,34.925 0 0 0 90.124213,93.344689 L 65.428047,68.64904 H 100.35305 A 34.925,34.925 0 0 0 72.241584,34.394801 34.925,34.925 0 0 0 65.437866,33.72404 Z m -37.453527,6.507612 c -2.698187,3.558522 -4.883041,7.501713 -6.469891,11.676806 -3.1294,8.201324 -3.869634,17.247134 -2.179712,25.845968 l 4.622457,-0.907955 C 22.438196,69.117355 23.108882,60.93665 25.915212,53.584326 h 0.0021 v -0.0026 c 1.426247,-3.752585 3.393932,-7.303862 5.819799,-10.503233 z m 79.735181,32.870346 c -0.30726,2.957412 -0.93032,5.884693 -1.85363,8.710062 l 4.47879,1.462442 c 1.02755,-3.144387 1.7186,-6.3964 2.06034,-9.685713 z m -7.941117,20.569285 c -3.511817,4.799621 -8.051186,8.858147 -13.215212,11.804967 l 2.334223,4.09019 c 5.747364,-3.2797 10.776119,-7.77481 14.682306,-13.113412 z m -59.517813,8.995317 -2.814299,3.77445 c 1.94873,1.45293 4.008152,2.75412 6.156732,3.88813 6.629675,3.50914 14.091745,5.37143 21.586796,5.41569 l 0.02584,-4.70979 c -6.730849,-0.0397 -13.463341,-1.72282 -19.40915,-4.86998 l -0.0021,-0.002 c -1.934501,-1.02091 -3.791215,-2.18971 -5.543849,-3.49643 z"
       style="fill:#ffffff;fill-opacity:1;stroke-width:0.405143"
       id="path835" />
  </g>
</svg>
