<?xml version="1.0" encoding="UTF-8" standalone="no"?>
<svg
   xmlns:dc="http://purl.org/dc/elements/1.1/"
   xmlns:cc="http://creativecommons.org/ns#"
   xmlns:rdf="http://www.w3.org/1999/02/22-rdf-syntax-ns#"
   xmlns:svg="http://www.w3.org/2000/svg"
   xmlns="http://www.w3.org/2000/svg"
   xmlns:sodipodi="http://sodipodi.sourceforge.net/DTD/sodipodi-0.dtd"
   xmlns:inkscape="http://www.inkscape.org/namespaces/inkscape"
   id="svg8"
   version="1.1"
   viewBox="0 0 63.499999 63.500002"
   height="240"
   width="240"
   sodipodi:docname="telegram.svg"
   inkscape:version="1.0.2 (e86c870879, 2021-01-15, custom)">
  <sodipodi:namedview
     pagecolor="#ffffff"
     bordercolor="#666666"
     borderopacity="1"
     objecttolerance="10"
     gridtolerance="10"
     guidetolerance="10"
     inkscape:pageopacity="0"
     inkscape:pageshadow="2"
     inkscape:window-width="1280"
     inkscape:window-height="961"
     id="namedview15"
     showgrid="false"
     inkscape:zoom="1.53125"
     inkscape:cx="-7.4590591"
     inkscape:cy="148.52582"
     inkscape:window-x="-8"
     inkscape:window-y="-8"
     inkscape:window-maximized="1"
     inkscape:current-layer="svg8" />
  <defs
     id="defs2">
    <linearGradient
       gradientTransform="matrix(0.26458333,0,0,0.26458333,0.57139271,6.3458707)"
       gradientUnits="userSpaceOnUse"
       id="a"
       x1="160.08"
       x2="100.08"
       y1="40.079998"
       y2="180">
      <stop
         offset="0"
         stop-color="#37aee2"
         id="stop833" />
      <stop
         offset="1"
         stop-color="#1e96c8"
         id="stop835" />
    </linearGradient>
    <linearGradient
       gradientUnits="userSpaceOnUse"
       gradientTransform="scale(1.0919068,0.9158291)"
       id="b"
       x1="123.67709"
       x2="146.50331"
       y1="131.03925"
       y2="174.66003">
      <stop
         offset="0"
         stop-color="#eff7fc"
         id="stop838" />
      <stop
         offset="1"
         stop-color="#fff"
         id="stop840" />
    </linearGradient>
  </defs>
  <metadata
     id="metadata5">
    <rdf:RDF>
      <cc:Work
         rdf:about="">
        <dc:format>image/svg+xml</dc:format>
        <dc:type
           rdf:resource="http://purl.org/dc/dcmitype/StillImage" />
        <dc:title />
      </cc:Work>
    </rdf:RDF>
  </metadata>
  <path
     id="circle845"
     style="fill:#ffffff;stroke-width:0.999999"
     d="M 120 0 A 120 120 0 0 0 0 120 A 120 120 0 0 0 120 240 A 120 120 0 0 0 240 120 A 120 120 0 0 0 120 0 z M 173.50586 72.183594 C 177.54168 72.036249 180.59813 75.688909 178.96094 82.253906 L 159.27539 175.01562 C 157.90039 181.60663 153.91939 183.18367 148.40039 180.13867 L 118.41211 157.98438 L 104 172 C 102.325 173.628 101 175 98 175 L 100.04102 144.41211 L 100.03906 144.41016 L 100.04102 144.4082 L 100.04102 144.40625 L 100.04297 144.40625 L 155.68359 94.195312 C 158.12559 92.027315 155.15021 90.971488 151.9082 92.9375 L 83.236328 136.26172 L 53.572266 127.00391 C 47.16727 125.04291 47.119768 120.63962 55.009766 117.47461 L 170.59961 72.904297 C 171.58961 72.454851 172.57451 72.217609 173.50586 72.183594 z "
     transform="scale(0.26458334)" />
</svg>
